<mxfile host="app.diagrams.net" modified="2024-06-10T20:47:17.435Z" agent="Mozilla/5.0 (Windows NT 10.0; Win64; x64; rv:126.0) Gecko/20100101 Firefox/126.0" etag="A4ny72ML2TM93xikOTue" version="24.5.2" type="device">
  <diagram name="Page-1" id="9361dd3d-8414-5efd-6122-117bd74ce7a7">
    <mxGraphModel dx="1562" dy="894" grid="1" gridSize="10" guides="1" tooltips="1" connect="1" arrows="1" fold="1" page="0" pageScale="1.5" pageWidth="826" pageHeight="1169" background="none" math="0" shadow="0">
      <root>
        <mxCell id="0" />
        <mxCell id="1" parent="0" />
        <mxCell id="YI2W7DXEhTe_7VjpbuNO-110" value="" style="edgeStyle=elbowEdgeStyle;elbow=horizontal;endArrow=none;dashed=1;fontFamily=Helvetica;fontSize=14;" parent="1" source="YI2W7DXEhTe_7VjpbuNO-89" target="YI2W7DXEhTe_7VjpbuNO-109" edge="1">
          <mxGeometry x="230.00000000000003" y="310" width="100" height="100" as="geometry">
            <mxPoint x="640" y="130" as="sourcePoint" />
            <mxPoint x="640.5" y="740" as="targetPoint" />
          </mxGeometry>
        </mxCell>
        <mxCell id="4" value="button&#xa;Manager" style="shadow=1;fontFamily=Helvetica;fontSize=14;fontStyle=1" parent="1" vertex="1">
          <mxGeometry x="411" y="80" width="105" height="50" as="geometry" />
        </mxCell>
        <mxCell id="YI2W7DXEhTe_7VjpbuNO-89" value="display&#xa;Controller" style="shadow=1;fontFamily=Helvetica;fontSize=14;fontStyle=1" parent="1" vertex="1">
          <mxGeometry x="588" y="80" width="105" height="50" as="geometry" />
        </mxCell>
        <mxCell id="YI2W7DXEhTe_7VjpbuNO-96" value="" style="edgeStyle=orthogonalEdgeStyle;rounded=0;orthogonalLoop=1;jettySize=auto;html=1;endArrow=none;endFill=0;dashed=1;fontFamily=Helvetica;fontSize=14;" parent="1" edge="1">
          <mxGeometry relative="1" as="geometry">
            <mxPoint x="320" y="170" as="sourcePoint" />
            <mxPoint x="320" y="760" as="targetPoint" />
          </mxGeometry>
        </mxCell>
        <mxCell id="YI2W7DXEhTe_7VjpbuNO-91" value="user" style="shape=umlActor;verticalLabelPosition=bottom;verticalAlign=top;html=1;outlineConnect=0;fontFamily=Helvetica;fontSize=14;fontStyle=1" parent="1" vertex="1">
          <mxGeometry x="305" y="75" width="30" height="60" as="geometry" />
        </mxCell>
        <mxCell id="YI2W7DXEhTe_7VjpbuNO-102" value="" style="edgeStyle=elbowEdgeStyle;elbow=horizontal;endArrow=none;dashed=1;fontFamily=Helvetica;fontSize=14;" parent="1" target="YI2W7DXEhTe_7VjpbuNO-101" edge="1">
          <mxGeometry x="230.00000000000003" y="310" width="100" height="100" as="geometry">
            <mxPoint x="463.5813953488372" y="130" as="sourcePoint" />
            <mxPoint x="463.5" y="740" as="targetPoint" />
          </mxGeometry>
        </mxCell>
        <mxCell id="YI2W7DXEhTe_7VjpbuNO-101" value="" style="rounded=0;whiteSpace=wrap;html=1;fontFamily=Helvetica;fontSize=14;" parent="1" vertex="1">
          <mxGeometry x="458.5" y="220" width="10" height="50" as="geometry" />
        </mxCell>
        <mxCell id="YI2W7DXEhTe_7VjpbuNO-99" value="" style="endArrow=classic;html=1;rounded=0;fontFamily=Helvetica;fontSize=14;" parent="1" edge="1">
          <mxGeometry width="50" height="50" relative="1" as="geometry">
            <mxPoint x="468.5" y="233" as="sourcePoint" />
            <mxPoint x="468.5" y="263" as="targetPoint" />
            <Array as="points">
              <mxPoint x="498.5" y="233" />
              <mxPoint x="498.5" y="253" />
              <mxPoint x="498.5" y="263" />
            </Array>
          </mxGeometry>
        </mxCell>
        <mxCell id="m5NJ58IH4PF-xwwZF46_-7" value="k_work_reschedule(&amp;amp;btnPress,15ms)" style="edgeLabel;html=1;align=center;verticalAlign=middle;resizable=0;points=[];fontSize=14;labelBackgroundColor=#FFFFFF;" parent="YI2W7DXEhTe_7VjpbuNO-99" vertex="1" connectable="0">
          <mxGeometry x="-0.0533" y="-1" relative="1" as="geometry">
            <mxPoint x="91" as="offset" />
          </mxGeometry>
        </mxCell>
        <mxCell id="YI2W7DXEhTe_7VjpbuNO-97" value="" style="endArrow=open;html=1;rounded=0;endFill=0;entryX=-0.06;entryY=0.162;entryDx=0;entryDy=0;entryPerimeter=0;fontFamily=Helvetica;fontSize=14;" parent="1" target="YI2W7DXEhTe_7VjpbuNO-101" edge="1">
          <mxGeometry width="50" height="50" relative="1" as="geometry">
            <mxPoint x="320" y="190" as="sourcePoint" />
            <mxPoint x="472" y="229" as="targetPoint" />
          </mxGeometry>
        </mxCell>
        <mxCell id="YI2W7DXEhTe_7VjpbuNO-98" value="press select" style="edgeLabel;html=1;align=center;verticalAlign=middle;resizable=0;points=[];fontFamily=Helvetica;fontSize=14;" parent="YI2W7DXEhTe_7VjpbuNO-97" vertex="1" connectable="0">
          <mxGeometry x="-0.195" y="-2" relative="1" as="geometry">
            <mxPoint x="5" y="-27" as="offset" />
          </mxGeometry>
        </mxCell>
        <mxCell id="YI2W7DXEhTe_7VjpbuNO-108" value="" style="edgeStyle=elbowEdgeStyle;elbow=horizontal;endArrow=none;dashed=1;fontFamily=Helvetica;fontSize=14;" parent="1" source="YI2W7DXEhTe_7VjpbuNO-101" target="YI2W7DXEhTe_7VjpbuNO-107" edge="1">
          <mxGeometry x="230.00000000000003" y="310" width="100" height="100" as="geometry">
            <mxPoint x="463" y="300" as="sourcePoint" />
            <mxPoint x="463.5" y="720" as="targetPoint" />
          </mxGeometry>
        </mxCell>
        <mxCell id="m5NJ58IH4PF-xwwZF46_-9" value="" style="edgeStyle=orthogonalEdgeStyle;rounded=0;orthogonalLoop=1;jettySize=auto;html=1;entryX=-0.056;entryY=0.191;entryDx=0;entryDy=0;entryPerimeter=0;" parent="1" source="YI2W7DXEhTe_7VjpbuNO-107" target="YI2W7DXEhTe_7VjpbuNO-109" edge="1">
          <mxGeometry relative="1" as="geometry">
            <mxPoint x="513.5" y="287" as="targetPoint" />
            <Array as="points" />
          </mxGeometry>
        </mxCell>
        <mxCell id="m5NJ58IH4PF-xwwZF46_-10" value="selectPressed()" style="edgeLabel;html=1;align=center;verticalAlign=middle;resizable=0;points=[];fontSize=14;" parent="m5NJ58IH4PF-xwwZF46_-9" vertex="1" connectable="0">
          <mxGeometry x="-0.287" y="1" relative="1" as="geometry">
            <mxPoint x="29" y="-10" as="offset" />
          </mxGeometry>
        </mxCell>
        <mxCell id="YI2W7DXEhTe_7VjpbuNO-107" value="" style="rounded=0;whiteSpace=wrap;html=1;fontFamily=Helvetica;fontSize=14;" parent="1" vertex="1">
          <mxGeometry x="458.5" y="282" width="10" height="10" as="geometry" />
        </mxCell>
        <mxCell id="YI2W7DXEhTe_7VjpbuNO-109" value="" style="rounded=0;whiteSpace=wrap;html=1;fontFamily=Helvetica;fontSize=14;" parent="1" vertex="1">
          <mxGeometry x="635.5" y="275" width="10" height="58" as="geometry" />
        </mxCell>
        <mxCell id="YI2W7DXEhTe_7VjpbuNO-111" value="display" style="shadow=1;fontFamily=Helvetica;fontSize=14;fontStyle=1" parent="1" vertex="1">
          <mxGeometry x="798" y="80" width="105" height="50" as="geometry" />
        </mxCell>
        <mxCell id="YI2W7DXEhTe_7VjpbuNO-113" value="" style="edgeStyle=elbowEdgeStyle;elbow=horizontal;endArrow=none;dashed=1;fontFamily=Helvetica;fontSize=14;" parent="1" source="YI2W7DXEhTe_7VjpbuNO-111" edge="1">
          <mxGeometry x="230.00000000000003" y="310" width="100" height="100" as="geometry">
            <mxPoint x="850" y="130" as="sourcePoint" />
            <mxPoint x="850" y="760" as="targetPoint" />
          </mxGeometry>
        </mxCell>
        <mxCell id="YI2W7DXEhTe_7VjpbuNO-143" value="" style="edgeStyle=elbowEdgeStyle;elbow=horizontal;endArrow=none;dashed=1;fontFamily=Helvetica;fontSize=14;" parent="1" source="YI2W7DXEhTe_7VjpbuNO-107" edge="1">
          <mxGeometry x="230.00000000000003" y="310" width="100" height="100" as="geometry">
            <mxPoint x="464" y="598" as="sourcePoint" />
            <mxPoint x="464" y="760" as="targetPoint" />
          </mxGeometry>
        </mxCell>
        <mxCell id="pHPE8b7I82gGhvSn6_Qi-35" value="connection" style="shadow=1;fontFamily=Helvetica;fontSize=14;fontStyle=1" parent="1" vertex="1">
          <mxGeometry x="950" y="80" width="105" height="50" as="geometry" />
        </mxCell>
        <mxCell id="pHPE8b7I82gGhvSn6_Qi-36" value="" style="edgeStyle=elbowEdgeStyle;elbow=horizontal;endArrow=none;dashed=1;fontFamily=Helvetica;fontSize=14;" parent="1" source="pHPE8b7I82gGhvSn6_Qi-35" edge="1">
          <mxGeometry x="230.00000000000003" y="310" width="100" height="100" as="geometry">
            <mxPoint x="1002" y="130" as="sourcePoint" />
            <mxPoint x="1002" y="760" as="targetPoint" />
          </mxGeometry>
        </mxCell>
        <mxCell id="m5NJ58IH4PF-xwwZF46_-15" value="" style="edgeStyle=orthogonalEdgeStyle;rounded=0;orthogonalLoop=1;jettySize=auto;html=1;exitX=0.986;exitY=0.607;exitDx=0;exitDy=0;exitPerimeter=0;" parent="1" edge="1">
          <mxGeometry relative="1" as="geometry">
            <mxPoint x="645.4999999999999" y="320.206" as="sourcePoint" />
            <mxPoint x="850" y="320" as="targetPoint" />
            <Array as="points">
              <mxPoint x="750.14" y="320" />
              <mxPoint x="790.14" y="320" />
            </Array>
          </mxGeometry>
        </mxCell>
        <mxCell id="m5NJ58IH4PF-xwwZF46_-16" value="display_show_popup()" style="edgeLabel;html=1;align=center;verticalAlign=middle;resizable=0;points=[];fontSize=14;" parent="m5NJ58IH4PF-xwwZF46_-15" vertex="1" connectable="0">
          <mxGeometry x="-0.287" y="1" relative="1" as="geometry">
            <mxPoint x="28" y="-12" as="offset" />
          </mxGeometry>
        </mxCell>
        <mxCell id="m5NJ58IH4PF-xwwZF46_-28" value="" style="edgeStyle=elbowEdgeStyle;elbow=horizontal;endArrow=none;dashed=1;fontFamily=Helvetica;fontSize=14;" parent="1" source="YI2W7DXEhTe_7VjpbuNO-109" edge="1">
          <mxGeometry x="230.00000000000003" y="310" width="100" height="100" as="geometry">
            <mxPoint x="640" y="350" as="sourcePoint" />
            <mxPoint x="640" y="760" as="targetPoint" />
            <Array as="points" />
          </mxGeometry>
        </mxCell>
        <mxCell id="CNlK-LUKjcN8C8Hotxmn-20" value="" style="rounded=0;whiteSpace=wrap;html=1;fontFamily=Helvetica;fontSize=14;" vertex="1" parent="1">
          <mxGeometry x="458.5" y="376" width="10" height="50" as="geometry" />
        </mxCell>
        <mxCell id="CNlK-LUKjcN8C8Hotxmn-21" value="" style="endArrow=classic;html=1;rounded=0;fontFamily=Helvetica;fontSize=14;" edge="1" parent="1">
          <mxGeometry width="50" height="50" relative="1" as="geometry">
            <mxPoint x="468.5" y="389" as="sourcePoint" />
            <mxPoint x="468.5" y="419" as="targetPoint" />
            <Array as="points">
              <mxPoint x="498.5" y="389" />
              <mxPoint x="498.5" y="409" />
              <mxPoint x="498.5" y="419" />
            </Array>
          </mxGeometry>
        </mxCell>
        <mxCell id="CNlK-LUKjcN8C8Hotxmn-22" value="k_work_reschedule(&amp;amp;btnPress,15ms)" style="edgeLabel;html=1;align=center;verticalAlign=middle;resizable=0;points=[];fontSize=14;labelBackgroundColor=#FFFFFF;" vertex="1" connectable="0" parent="CNlK-LUKjcN8C8Hotxmn-21">
          <mxGeometry x="-0.0533" y="-1" relative="1" as="geometry">
            <mxPoint x="91" as="offset" />
          </mxGeometry>
        </mxCell>
        <mxCell id="CNlK-LUKjcN8C8Hotxmn-23" value="" style="endArrow=open;html=1;rounded=0;endFill=0;entryX=-0.06;entryY=0.162;entryDx=0;entryDy=0;entryPerimeter=0;fontFamily=Helvetica;fontSize=14;" edge="1" parent="1" target="CNlK-LUKjcN8C8Hotxmn-20">
          <mxGeometry width="50" height="50" relative="1" as="geometry">
            <mxPoint x="320" y="346" as="sourcePoint" />
            <mxPoint x="472" y="385" as="targetPoint" />
          </mxGeometry>
        </mxCell>
        <mxCell id="CNlK-LUKjcN8C8Hotxmn-24" value="press trigger" style="edgeLabel;html=1;align=center;verticalAlign=middle;resizable=0;points=[];fontFamily=Helvetica;fontSize=14;" vertex="1" connectable="0" parent="CNlK-LUKjcN8C8Hotxmn-23">
          <mxGeometry x="-0.195" y="-2" relative="1" as="geometry">
            <mxPoint x="5" y="-27" as="offset" />
          </mxGeometry>
        </mxCell>
        <mxCell id="CNlK-LUKjcN8C8Hotxmn-25" value="" style="edgeStyle=elbowEdgeStyle;elbow=horizontal;endArrow=none;dashed=1;fontFamily=Helvetica;fontSize=14;" edge="1" parent="1" source="CNlK-LUKjcN8C8Hotxmn-20" target="CNlK-LUKjcN8C8Hotxmn-28">
          <mxGeometry x="230.00000000000003" y="310" width="100" height="100" as="geometry">
            <mxPoint x="463" y="456" as="sourcePoint" />
            <mxPoint x="463.5" y="876" as="targetPoint" />
          </mxGeometry>
        </mxCell>
        <mxCell id="CNlK-LUKjcN8C8Hotxmn-26" value="" style="edgeStyle=orthogonalEdgeStyle;rounded=0;orthogonalLoop=1;jettySize=auto;html=1;entryX=-0.2;entryY=0.128;entryDx=0;entryDy=0;entryPerimeter=0;" edge="1" parent="1" source="CNlK-LUKjcN8C8Hotxmn-28" target="CNlK-LUKjcN8C8Hotxmn-29">
          <mxGeometry relative="1" as="geometry">
            <mxPoint x="513.5" y="443" as="targetPoint" />
            <Array as="points" />
          </mxGeometry>
        </mxCell>
        <mxCell id="CNlK-LUKjcN8C8Hotxmn-27" value="triggerPressed()" style="edgeLabel;html=1;align=center;verticalAlign=middle;resizable=0;points=[];fontSize=14;" vertex="1" connectable="0" parent="CNlK-LUKjcN8C8Hotxmn-26">
          <mxGeometry x="-0.287" y="1" relative="1" as="geometry">
            <mxPoint x="29" y="-10" as="offset" />
          </mxGeometry>
        </mxCell>
        <mxCell id="CNlK-LUKjcN8C8Hotxmn-28" value="" style="rounded=0;whiteSpace=wrap;html=1;fontFamily=Helvetica;fontSize=14;" vertex="1" parent="1">
          <mxGeometry x="458.5" y="438" width="10" height="10" as="geometry" />
        </mxCell>
        <mxCell id="CNlK-LUKjcN8C8Hotxmn-29" value="" style="rounded=0;whiteSpace=wrap;html=1;fontFamily=Helvetica;fontSize=14;" vertex="1" parent="1">
          <mxGeometry x="635.5" y="428" width="10" height="122" as="geometry" />
        </mxCell>
        <mxCell id="CNlK-LUKjcN8C8Hotxmn-30" value="" style="edgeStyle=orthogonalEdgeStyle;rounded=0;orthogonalLoop=1;jettySize=auto;html=1;" edge="1" parent="1">
          <mxGeometry relative="1" as="geometry">
            <mxPoint x="645.5" y="484" as="sourcePoint" />
            <mxPoint x="1000" y="484" as="targetPoint" />
            <Array as="points" />
          </mxGeometry>
        </mxCell>
        <mxCell id="CNlK-LUKjcN8C8Hotxmn-31" value="openCollar()" style="edgeLabel;html=1;align=center;verticalAlign=middle;resizable=0;points=[];fontSize=14;" vertex="1" connectable="0" parent="CNlK-LUKjcN8C8Hotxmn-30">
          <mxGeometry x="-0.287" y="1" relative="1" as="geometry">
            <mxPoint x="138" y="-10" as="offset" />
          </mxGeometry>
        </mxCell>
        <mxCell id="CNlK-LUKjcN8C8Hotxmn-32" value="" style="edgeStyle=orthogonalEdgeStyle;rounded=0;orthogonalLoop=1;jettySize=auto;html=1;exitX=0.987;exitY=0.309;exitDx=0;exitDy=0;exitPerimeter=0;" edge="1" parent="1" source="CNlK-LUKjcN8C8Hotxmn-29">
          <mxGeometry relative="1" as="geometry">
            <mxPoint x="640" y="470" as="sourcePoint" />
            <mxPoint x="850" y="465" as="targetPoint" />
            <Array as="points">
              <mxPoint x="660" y="466" />
            </Array>
          </mxGeometry>
        </mxCell>
        <mxCell id="CNlK-LUKjcN8C8Hotxmn-33" value="display_show_popup_highlighted()" style="edgeLabel;html=1;align=center;verticalAlign=middle;resizable=0;points=[];fontSize=14;" vertex="1" connectable="0" parent="CNlK-LUKjcN8C8Hotxmn-32">
          <mxGeometry x="-0.287" y="1" relative="1" as="geometry">
            <mxPoint x="41" y="-16" as="offset" />
          </mxGeometry>
        </mxCell>
        <mxCell id="CNlK-LUKjcN8C8Hotxmn-34" value="" style="edgeStyle=orthogonalEdgeStyle;rounded=0;orthogonalLoop=1;jettySize=auto;html=1;exitX=0.987;exitY=0.309;exitDx=0;exitDy=0;exitPerimeter=0;" edge="1" parent="1">
          <mxGeometry relative="1" as="geometry">
            <mxPoint x="645.5" y="541" as="sourcePoint" />
            <mxPoint x="850.5" y="540" as="targetPoint" />
            <Array as="points">
              <mxPoint x="646" y="540" />
            </Array>
          </mxGeometry>
        </mxCell>
        <mxCell id="CNlK-LUKjcN8C8Hotxmn-35" value="display_hide_popup()" style="edgeLabel;html=1;align=center;verticalAlign=middle;resizable=0;points=[];fontSize=14;" vertex="1" connectable="0" parent="CNlK-LUKjcN8C8Hotxmn-34">
          <mxGeometry x="-0.287" y="1" relative="1" as="geometry">
            <mxPoint x="11" y="-10" as="offset" />
          </mxGeometry>
        </mxCell>
        <mxCell id="CNlK-LUKjcN8C8Hotxmn-36" value="" style="endArrow=none;dashed=1;html=1;dashPattern=1 3;strokeWidth=2;rounded=0;" edge="1" parent="1">
          <mxGeometry width="50" height="50" relative="1" as="geometry">
            <mxPoint x="760" y="515" as="sourcePoint" />
            <mxPoint x="760" y="495" as="targetPoint" />
          </mxGeometry>
        </mxCell>
      </root>
    </mxGraphModel>
  </diagram>
</mxfile>
